<svg xmlns="http://www.w3.org/2000/svg" width="375" viewBox="0 0 375 225" height="225" version="1.0"><g fill="#004AAD"><g><g><path d="M 142.53125 -10.4375 L 142.328125 0 L 101.984375 0 L 61.03125 -57.421875 L 52.796875 -48.78125 L 52.796875 -12.640625 L 69.65625 -10.234375 L 69.453125 0 L 6.421875 0 L 5.21875 -6.421875 C 9.101562 -8.960938 14.789062 -11.707031 22.28125 -14.65625 L 22.28125 -119.640625 L 6.625 -121.859375 L 6.828125 -132.09375 L 68.453125 -132.09375 L 69.65625 -125.671875 C 64.707031 -122.722656 59.085938 -119.976562 52.796875 -117.4375 L 52.796875 -72.46875 L 97.15625 -119.84375 L 83.90625 -121.859375 L 84.109375 -132.09375 L 133.90625 -132.09375 L 135.109375 -125.671875 C 132.296875 -123.796875 126.738281 -121.316406 118.4375 -118.234375 L 80.90625 -78.5 L 130.09375 -12.453125 Z M 142.53125 -10.4375" transform="translate(16.554 140.674)"/></g></g></g><g fill="#004AAD"><g><g><path d="M 197.9375 -125.671875 L 182.6875 -118.046875 L 148.953125 0.203125 C 140.921875 1.671875 131.421875 2.539062 120.453125 2.8125 L 98.96875 -67.859375 L 94.546875 -44.5625 L 80.703125 0.203125 C 72.671875 1.671875 63.234375 2.539062 52.390625 2.8125 L 14.65625 -119.84375 L 0.40625 -121.859375 L 0.609375 -132.09375 L 61.625 -132.09375 L 62.828125 -125.671875 C 58.953125 -123.265625 53.46875 -120.585938 46.375 -117.640625 L 65.4375 -47.171875 L 67.046875 -20.46875 L 68.046875 -20.46875 L 90.140625 -96.96875 L 81.90625 -124.265625 L 111.015625 -130.890625 L 132.890625 -48.984375 L 135.109375 -20.46875 L 135.5 -20.46875 L 162.40625 -119.046875 L 142.9375 -121.859375 L 143.140625 -132.09375 L 196.734375 -132.09375 Z M 197.9375 -125.671875" transform="translate(160.895 140.674)"/></g></g></g><g fill="#FFDE59"><g><g><path d="M 19.40625 -50.046875 C 19.40625 -47.367188 20.519531 -45.203125 22.75 -43.546875 C 24.976562 -41.898438 28.414062 -40.050781 33.0625 -38 L 42.015625 -33.453125 C 49.066406 -29.441406 52.59375 -24 52.59375 -17.125 C 52.59375 -11.332031 50.316406 -6.582031 45.765625 -2.875 C 41.210938 0.820312 35.328125 2.671875 28.109375 2.671875 C 19.898438 2.671875 11.507812 0.304688 2.9375 -4.421875 L 8.828125 -18.0625 C 16.859375 -12.269531 25.425781 -8.476562 34.53125 -6.6875 C 36.664062 -8.5625 37.734375 -10.835938 37.734375 -13.515625 C 37.734375 -16.015625 36.816406 -18.132812 34.984375 -19.875 C 33.160156 -21.613281 28.898438 -24 22.203125 -27.03125 C 15.515625 -30.0625 10.96875 -33.023438 8.5625 -35.921875 C 6.15625 -38.828125 4.953125 -42.195312 4.953125 -46.03125 C 4.953125 -52.101562 7.535156 -56.921875 12.703125 -60.484375 C 17.878906 -64.054688 24.21875 -65.84375 31.71875 -65.84375 C 38.582031 -65.84375 44.691406 -64.457031 50.046875 -61.6875 L 50.1875 -61.6875 L 50.3125 -58.484375 C 50.3125 -53.484375 49.507812 -48.617188 47.90625 -43.890625 L 39.21875 -43.890625 L 37.203125 -55.140625 C 32.472656 -56.648438 28.054688 -57.273438 23.953125 -57.015625 C 20.921875 -55.410156 19.40625 -53.085938 19.40625 -50.046875 Z M 19.40625 -50.046875" transform="translate(53.796 215.096)"/></g></g></g><g fill="#FFDE59"><g><g><path d="M 21.546875 -75.75 C 16.640625 -77.800781 12.582031 -80.921875 9.375 -85.109375 C 12.050781 -90.460938 15.347656 -94.523438 19.265625 -97.296875 C 23.816406 -95.242188 27.703125 -91.941406 30.921875 -87.390625 C 28.867188 -82.390625 25.742188 -78.507812 21.546875 -75.75 Z M 28.640625 -9.640625 C 32.742188 -8.921875 35.910156 -7.847656 38.140625 -6.421875 L 37.609375 0 L 3.34375 0 L 2.8125 -4.546875 C 5.394531 -5.890625 8.785156 -7.1875 12.984375 -8.4375 L 12.984375 -54.46875 L 2.9375 -54.609375 L 1.609375 -61.03125 C 7.765625 -63.519531 14.765625 -64.988281 22.609375 -65.4375 L 28.640625 -60.09375 Z M 28.640625 -9.640625" transform="translate(111.613 215.096)"/></g></g><g><g><path d="M 31.71875 -10.96875 C 34.125 -10.96875 38.050781 -11.816406 43.5 -13.515625 L 45.234375 -7.09375 L 26.359375 2.140625 C 22.796875 2.316406 19.40625 1.066406 16.1875 -1.609375 C 12.976562 -4.285156 11.375 -7.226562 11.375 -10.4375 L 11.375 -51.25 L 2.671875 -51.125 L 1.875 -57.8125 C 5.53125 -59.863281 8.921875 -61.425781 12.046875 -62.5 L 17.9375 -79.625 L 25.6875 -79.625 L 26.765625 -62.90625 L 45.5 -62.90625 L 45.90625 -58.078125 L 39.484375 -50.984375 L 27.03125 -50.984375 L 27.03125 -17.796875 C 27.03125 -15.296875 27.363281 -13.53125 28.03125 -12.5 C 28.707031 -11.476562 29.9375 -10.96875 31.71875 -10.96875 Z M 31.71875 -10.96875" transform="translate(152.298 215.096)"/></g></g><g><g><path d="M 17.9375 -33.71875 C 17.9375 -26.132812 19.921875 -20.242188 23.890625 -16.046875 C 27.859375 -11.859375 32.921875 -9.765625 39.078125 -9.765625 C 43.890625 -9.765625 49.597656 -11.28125 56.203125 -14.3125 L 58.609375 -8.03125 L 37.734375 1.875 C 27.390625 2.40625 18.894531 -0.40625 12.25 -6.5625 C 5.601562 -12.71875 2.28125 -20.742188 2.28125 -30.640625 C 2.28125 -40.273438 5.378906 -48.550781 11.578125 -55.46875 C 17.773438 -62.382812 25.289062 -65.84375 34.125 -65.84375 C 41.625 -65.84375 47.800781 -63.5 52.65625 -58.8125 C 57.519531 -54.132812 59.910156 -48.09375 59.828125 -40.6875 L 52.0625 -33.1875 Z M 28.375 -56.75 C 23.644531 -54.070312 20.476562 -49.070312 18.875 -41.75 L 44.96875 -43.09375 C 44.25 -47.195312 42.347656 -50.519531 39.265625 -53.0625 C 36.191406 -55.601562 32.5625 -56.832031 28.375 -56.75 Z M 28.375 -56.75" transform="translate(200.88 215.096)"/></g></g></g><g fill="#FFDE59"><g><g><path d="M 19.40625 -50.046875 C 19.40625 -47.367188 20.519531 -45.203125 22.75 -43.546875 C 24.976562 -41.898438 28.414062 -40.050781 33.0625 -38 L 42.015625 -33.453125 C 49.066406 -29.441406 52.59375 -24 52.59375 -17.125 C 52.59375 -11.332031 50.316406 -6.582031 45.765625 -2.875 C 41.210938 0.820312 35.328125 2.671875 28.109375 2.671875 C 19.898438 2.671875 11.507812 0.304688 2.9375 -4.421875 L 8.828125 -18.0625 C 16.859375 -12.269531 25.425781 -8.476562 34.53125 -6.6875 C 36.664062 -8.5625 37.734375 -10.835938 37.734375 -13.515625 C 37.734375 -16.015625 36.816406 -18.132812 34.984375 -19.875 C 33.160156 -21.613281 28.898438 -24 22.203125 -27.03125 C 15.515625 -30.0625 10.96875 -33.023438 8.5625 -35.921875 C 6.15625 -38.828125 4.953125 -42.195312 4.953125 -46.03125 C 4.953125 -52.101562 7.535156 -56.921875 12.703125 -60.484375 C 17.878906 -64.054688 24.21875 -65.84375 31.71875 -65.84375 C 38.582031 -65.84375 44.691406 -64.457031 50.046875 -61.6875 L 50.1875 -61.6875 L 50.3125 -58.484375 C 50.3125 -53.484375 49.507812 -48.617188 47.90625 -43.890625 L 39.21875 -43.890625 L 37.203125 -55.140625 C 32.472656 -56.648438 28.054688 -57.273438 23.953125 -57.015625 C 20.921875 -55.410156 19.40625 -53.085938 19.40625 -50.046875 Z M 19.40625 -50.046875" transform="translate(263.381 215.096)"/></g></g></g></svg>